<?xml version="1.0" standalone="no"?>
<!DOCTYPE svg PUBLIC "-//W3C//DTD SVG 20010904//EN"
 "http://www.w3.org/TR/2001/REC-SVG-20010904/DTD/svg10.dtd">
<svg version="1.0" xmlns="http://www.w3.org/2000/svg"
 width="260.000000pt" height="260.000000pt" viewBox="0 0 260.000000 260.000000"
 preserveAspectRatio="xMidYMid meet">
<metadata>
Created by potrace 1.14, written by Peter Selinger 2001-2017
</metadata>
<g transform="translate(0.000000,260.000000) scale(0.100000,-0.100000)"
fill="#000000" stroke="none">
<path d="M220 2484 c0 -32 4 -37 44 -55 43 -19 44 -20 35 -52 -16 -56 -11 -81
24 -115 l33 -32 914 0 915 0 27 34 c16 19 28 44 28 54 0 11 20 36 45 56 43 36
45 39 45 92 l0 54 -1055 0 -1055 0 0 -36z"/>
<path d="M650 1140 l0 -1060 630 0 630 0 0 1060 0 1060 -630 0 -630 0 0 -1060z
m1115 0 l0 -915 -487 -3 -488 -2 0 920 0 920 488 -2 487 -3 0 -915z"/>
<path d="M820 1145 l0 -885 455 0 455 0 0 885 0 885 -455 0 -455 0 0 -885z
m300 645 l0 -200 -130 0 -130 0 0 200 0 200 130 0 130 0 0 -200z m280 0 l0
-200 -120 0 -120 0 0 200 0 200 120 0 120 0 0 -200z m300 0 l0 -200 -135 0
-135 0 0 200 0 200 135 0 135 0 0 -200z m-580 -435 l0 -195 -130 0 -130 0 0
195 0 195 130 0 130 0 0 -195z m275 0 l0 -190 -117 -3 -118 -3 0 196 0 196
118 -3 117 -3 0 -190z m303 3 l-3 -193 -132 -3 -133 -3 0 196 0 195 135 0 135
0 -2 -192z m-578 -428 l0 -190 -130 0 -130 0 0 190 0 190 130 0 130 0 0 -190z
m280 0 l0 -190 -120 0 -120 0 0 190 0 190 120 0 120 0 0 -190z m300 0 l0 -190
-135 0 -135 0 0 190 0 190 135 0 135 0 0 -190z m-580 -430 l0 -200 -130 0
-130 0 0 200 0 200 130 0 130 0 0 -200z m280 0 l0 -200 -120 0 -120 0 0 200 0
200 120 0 120 0 0 -200z m300 0 l0 -200 -135 0 -135 0 0 200 0 200 135 0 135
0 0 -200z"/>
</g>
</svg>
